<mxfile host="app.diagrams.net" agent="Mozilla/5.0 (Windows NT 10.0; Win64; x64) AppleWebKit/537.36 (KHTML, like Gecko) Chrome/127.0.0.0 Safari/537.36" version="24.7.16">
  <diagram name="PÃ¡gina-1" id="KAfZ7U-ixKtF90sCcpoF">
    <mxGraphModel dx="934" dy="414" grid="1" gridSize="10" guides="1" tooltips="1" connect="1" arrows="1" fold="1" page="1" pageScale="1" pageWidth="827" pageHeight="1169" math="0" shadow="0">
      <root>
        <mxCell id="0" />
        <mxCell id="1" parent="0" />
        <mxCell id="6w2IjOp51D1sBPelpt-x-1" value="Sucursal" style="swimlane;fontStyle=1;align=center;verticalAlign=top;childLayout=stackLayout;horizontal=1;startSize=26;horizontalStack=0;resizeParent=1;resizeParentMax=0;resizeLast=0;collapsible=1;marginBottom=0;whiteSpace=wrap;html=1;" vertex="1" parent="1">
          <mxGeometry x="120" y="110" width="160" height="86" as="geometry" />
        </mxCell>
        <mxCell id="6w2IjOp51D1sBPelpt-x-2" value="- direccion: string" style="text;strokeColor=none;fillColor=none;align=left;verticalAlign=top;spacingLeft=4;spacingRight=4;overflow=hidden;rotatable=0;points=[[0,0.5],[1,0.5]];portConstraint=eastwest;whiteSpace=wrap;html=1;" vertex="1" parent="6w2IjOp51D1sBPelpt-x-1">
          <mxGeometry y="26" width="160" height="26" as="geometry" />
        </mxCell>
        <mxCell id="6w2IjOp51D1sBPelpt-x-3" value="" style="line;strokeWidth=1;fillColor=none;align=left;verticalAlign=middle;spacingTop=-1;spacingLeft=3;spacingRight=3;rotatable=0;labelPosition=right;points=[];portConstraint=eastwest;strokeColor=inherit;" vertex="1" parent="6w2IjOp51D1sBPelpt-x-1">
          <mxGeometry y="52" width="160" height="8" as="geometry" />
        </mxCell>
        <mxCell id="6w2IjOp51D1sBPelpt-x-4" value="+ method(type): type" style="text;strokeColor=none;fillColor=none;align=left;verticalAlign=top;spacingLeft=4;spacingRight=4;overflow=hidden;rotatable=0;points=[[0,0.5],[1,0.5]];portConstraint=eastwest;whiteSpace=wrap;html=1;" vertex="1" parent="6w2IjOp51D1sBPelpt-x-1">
          <mxGeometry y="60" width="160" height="26" as="geometry" />
        </mxCell>
        <mxCell id="6w2IjOp51D1sBPelpt-x-5" value="&lt;div&gt;&amp;lt;&amp;lt;Abstract&amp;gt;&amp;gt;&lt;/div&gt;Cambio&lt;div&gt;&lt;br&gt;&lt;/div&gt;" style="swimlane;fontStyle=1;align=center;verticalAlign=top;childLayout=stackLayout;horizontal=1;startSize=40;horizontalStack=0;resizeParent=1;resizeParentMax=0;resizeLast=0;collapsible=1;marginBottom=0;whiteSpace=wrap;html=1;" vertex="1" parent="1">
          <mxGeometry x="320" y="110" width="270" height="154" as="geometry" />
        </mxCell>
        <mxCell id="6w2IjOp51D1sBPelpt-x-10" value="- nombre: string&lt;div&gt;- abreviacion: string&lt;/div&gt;&lt;div&gt;- precioVenta: double&lt;/div&gt;&lt;div&gt;- precioCompra: double&lt;br&gt;&lt;/div&gt;" style="text;strokeColor=none;fillColor=none;align=left;verticalAlign=top;spacingLeft=4;spacingRight=4;overflow=hidden;rotatable=0;points=[[0,0.5],[1,0.5]];portConstraint=eastwest;whiteSpace=wrap;html=1;" vertex="1" parent="6w2IjOp51D1sBPelpt-x-5">
          <mxGeometry y="40" width="270" height="64" as="geometry" />
        </mxCell>
        <mxCell id="6w2IjOp51D1sBPelpt-x-7" value="" style="line;strokeWidth=1;fillColor=none;align=left;verticalAlign=middle;spacingTop=-1;spacingLeft=3;spacingRight=3;rotatable=0;labelPosition=right;points=[];portConstraint=eastwest;strokeColor=inherit;" vertex="1" parent="6w2IjOp51D1sBPelpt-x-5">
          <mxGeometry y="104" width="270" height="8" as="geometry" />
        </mxCell>
        <mxCell id="6w2IjOp51D1sBPelpt-x-8" value="+&amp;lt;&amp;lt;Abstract&amp;gt;&amp;gt; vender(monto:double): double&lt;div&gt;+&lt;span style=&quot;background-color: initial;&quot;&gt;&amp;lt;&amp;lt;Abstract&amp;gt;&amp;gt;&lt;/span&gt;&lt;span style=&quot;background-color: initial;&quot;&gt;&amp;nbsp;comprar(monto:double): double&lt;/span&gt;&lt;/div&gt;" style="text;strokeColor=none;fillColor=none;align=left;verticalAlign=top;spacingLeft=4;spacingRight=4;overflow=hidden;rotatable=0;points=[[0,0.5],[1,0.5]];portConstraint=eastwest;whiteSpace=wrap;html=1;" vertex="1" parent="6w2IjOp51D1sBPelpt-x-5">
          <mxGeometry y="112" width="270" height="42" as="geometry" />
        </mxCell>
        <mxCell id="6w2IjOp51D1sBPelpt-x-18" style="edgeStyle=orthogonalEdgeStyle;rounded=0;orthogonalLoop=1;jettySize=auto;html=1;entryX=0;entryY=0.938;entryDx=0;entryDy=0;entryPerimeter=0;endArrow=block;endFill=0;endSize=10;" edge="1" parent="1" source="6w2IjOp51D1sBPelpt-x-20" target="6w2IjOp51D1sBPelpt-x-10">
          <mxGeometry relative="1" as="geometry">
            <mxPoint x="360.02857142857135" y="284" as="sourcePoint" />
            <Array as="points">
              <mxPoint x="340" y="297" />
              <mxPoint x="300" y="297" />
              <mxPoint x="300" y="210" />
            </Array>
          </mxGeometry>
        </mxCell>
        <mxCell id="6w2IjOp51D1sBPelpt-x-20" value="CambioARS" style="swimlane;fontStyle=1;align=center;verticalAlign=top;childLayout=stackLayout;horizontal=1;startSize=26;horizontalStack=0;resizeParent=1;resizeParentMax=0;resizeLast=0;collapsible=1;marginBottom=0;whiteSpace=wrap;html=1;" vertex="1" parent="1">
          <mxGeometry x="240" y="330" width="270" height="76" as="geometry" />
        </mxCell>
        <mxCell id="6w2IjOp51D1sBPelpt-x-22" value="" style="line;strokeWidth=1;fillColor=none;align=left;verticalAlign=middle;spacingTop=-1;spacingLeft=3;spacingRight=3;rotatable=0;labelPosition=right;points=[];portConstraint=eastwest;strokeColor=inherit;" vertex="1" parent="6w2IjOp51D1sBPelpt-x-20">
          <mxGeometry y="26" width="270" height="8" as="geometry" />
        </mxCell>
        <mxCell id="6w2IjOp51D1sBPelpt-x-38" value="+&amp;lt;&amp;lt;Override&amp;gt;&amp;gt; vender(monto:double): double&lt;div&gt;+&lt;span style=&quot;background-color: initial;&quot;&gt;&amp;lt;&amp;lt;Override&amp;gt;&amp;gt;&lt;/span&gt;&lt;span style=&quot;background-color: initial;&quot;&gt;&amp;nbsp;comprar(monto:double): double&lt;/span&gt;&lt;/div&gt;" style="text;strokeColor=none;fillColor=none;align=left;verticalAlign=top;spacingLeft=4;spacingRight=4;overflow=hidden;rotatable=0;points=[[0,0.5],[1,0.5]];portConstraint=eastwest;whiteSpace=wrap;html=1;" vertex="1" parent="6w2IjOp51D1sBPelpt-x-20">
          <mxGeometry y="34" width="270" height="42" as="geometry" />
        </mxCell>
        <mxCell id="6w2IjOp51D1sBPelpt-x-21" value="&lt;div&gt;&lt;br&gt;&lt;/div&gt;" style="text;strokeColor=none;fillColor=none;align=left;verticalAlign=top;spacingLeft=4;spacingRight=4;overflow=hidden;rotatable=0;points=[[0,0.5],[1,0.5]];portConstraint=eastwest;whiteSpace=wrap;html=1;" vertex="1" parent="1">
          <mxGeometry x="300" y="318" width="160" height="14" as="geometry" />
        </mxCell>
        <mxCell id="6w2IjOp51D1sBPelpt-x-23" value="CambioUSD" style="swimlane;fontStyle=1;align=center;verticalAlign=top;childLayout=stackLayout;horizontal=1;startSize=26;horizontalStack=0;resizeParent=1;resizeParentMax=0;resizeLast=0;collapsible=1;marginBottom=0;whiteSpace=wrap;html=1;" vertex="1" parent="1">
          <mxGeometry x="330" y="430" width="270" height="76" as="geometry" />
        </mxCell>
        <mxCell id="6w2IjOp51D1sBPelpt-x-24" value="" style="line;strokeWidth=1;fillColor=none;align=left;verticalAlign=middle;spacingTop=-1;spacingLeft=3;spacingRight=3;rotatable=0;labelPosition=right;points=[];portConstraint=eastwest;strokeColor=inherit;" vertex="1" parent="6w2IjOp51D1sBPelpt-x-23">
          <mxGeometry y="26" width="270" height="8" as="geometry" />
        </mxCell>
        <mxCell id="6w2IjOp51D1sBPelpt-x-39" value="+&amp;lt;&amp;lt;Override&amp;gt;&amp;gt; vender(monto:double): double&lt;div&gt;+&lt;span style=&quot;background-color: initial;&quot;&gt;&amp;lt;&amp;lt;Override&amp;gt;&amp;gt;&lt;/span&gt;&lt;span style=&quot;background-color: initial;&quot;&gt;&amp;nbsp;comprar(monto:double): double&lt;/span&gt;&lt;/div&gt;" style="text;strokeColor=none;fillColor=none;align=left;verticalAlign=top;spacingLeft=4;spacingRight=4;overflow=hidden;rotatable=0;points=[[0,0.5],[1,0.5]];portConstraint=eastwest;whiteSpace=wrap;html=1;" vertex="1" parent="6w2IjOp51D1sBPelpt-x-23">
          <mxGeometry y="34" width="270" height="42" as="geometry" />
        </mxCell>
        <mxCell id="6w2IjOp51D1sBPelpt-x-25" style="edgeStyle=orthogonalEdgeStyle;rounded=0;orthogonalLoop=1;jettySize=auto;html=1;exitX=0.718;exitY=-0.032;exitDx=0;exitDy=0;entryX=0.211;entryY=1;entryDx=0;entryDy=0;entryPerimeter=0;endArrow=block;endFill=0;startSize=6;endSize=11;exitPerimeter=0;" edge="1" parent="1" source="6w2IjOp51D1sBPelpt-x-23" target="6w2IjOp51D1sBPelpt-x-8">
          <mxGeometry relative="1" as="geometry">
            <Array as="points">
              <mxPoint x="545" y="420" />
              <mxPoint x="545" y="320" />
              <mxPoint x="377" y="320" />
            </Array>
          </mxGeometry>
        </mxCell>
        <mxCell id="6w2IjOp51D1sBPelpt-x-26" value="CambiadorCNYExterno" style="swimlane;fontStyle=1;align=center;verticalAlign=top;childLayout=stackLayout;horizontal=1;startSize=26;horizontalStack=0;resizeParent=1;resizeParentMax=0;resizeLast=0;collapsible=1;marginBottom=0;whiteSpace=wrap;html=1;fillColor=#e1d5e7;strokeColor=#9673a6;" vertex="1" parent="1">
          <mxGeometry x="610" y="140" width="250" height="76" as="geometry" />
        </mxCell>
        <mxCell id="6w2IjOp51D1sBPelpt-x-27" value="" style="line;strokeWidth=1;fillColor=none;align=left;verticalAlign=middle;spacingTop=-1;spacingLeft=3;spacingRight=3;rotatable=0;labelPosition=right;points=[];portConstraint=eastwest;strokeColor=inherit;" vertex="1" parent="6w2IjOp51D1sBPelpt-x-26">
          <mxGeometry y="26" width="250" height="8" as="geometry" />
        </mxCell>
        <mxCell id="6w2IjOp51D1sBPelpt-x-28" value="+ venderChino(monto:double): double&lt;div&gt;+ comprarChino(monto:double): double&lt;br&gt;&lt;/div&gt;" style="text;strokeColor=none;fillColor=none;align=left;verticalAlign=top;spacingLeft=4;spacingRight=4;overflow=hidden;rotatable=0;points=[[0,0.5],[1,0.5]];portConstraint=eastwest;whiteSpace=wrap;html=1;" vertex="1" parent="6w2IjOp51D1sBPelpt-x-26">
          <mxGeometry y="34" width="250" height="42" as="geometry" />
        </mxCell>
        <mxCell id="6w2IjOp51D1sBPelpt-x-30" value="CambioCNY" style="swimlane;fontStyle=1;align=center;verticalAlign=top;childLayout=stackLayout;horizontal=1;startSize=26;horizontalStack=0;resizeParent=1;resizeParentMax=0;resizeLast=0;collapsible=1;marginBottom=0;whiteSpace=wrap;html=1;fillColor=#d5e8d4;strokeColor=#82b366;" vertex="1" parent="1">
          <mxGeometry x="590" y="332" width="280" height="76" as="geometry" />
        </mxCell>
        <mxCell id="6w2IjOp51D1sBPelpt-x-31" value="" style="line;strokeWidth=1;fillColor=none;align=left;verticalAlign=middle;spacingTop=-1;spacingLeft=3;spacingRight=3;rotatable=0;labelPosition=right;points=[];portConstraint=eastwest;strokeColor=inherit;" vertex="1" parent="6w2IjOp51D1sBPelpt-x-30">
          <mxGeometry y="26" width="280" height="8" as="geometry" />
        </mxCell>
        <mxCell id="6w2IjOp51D1sBPelpt-x-40" value="+&amp;lt;&amp;lt;Override&amp;gt;&amp;gt; vender(monto:double): double&lt;div&gt;+&lt;span style=&quot;background-color: initial;&quot;&gt;&amp;lt;&amp;lt;Override&amp;gt;&amp;gt;&lt;/span&gt;&lt;span style=&quot;background-color: initial;&quot;&gt;&amp;nbsp;comprar(monto:double): double&lt;/span&gt;&lt;/div&gt;" style="text;strokeColor=none;fillColor=none;align=left;verticalAlign=top;spacingLeft=4;spacingRight=4;overflow=hidden;rotatable=0;points=[[0,0.5],[1,0.5]];portConstraint=eastwest;whiteSpace=wrap;html=1;" vertex="1" parent="6w2IjOp51D1sBPelpt-x-30">
          <mxGeometry y="34" width="280" height="42" as="geometry" />
        </mxCell>
        <mxCell id="6w2IjOp51D1sBPelpt-x-32" style="edgeStyle=orthogonalEdgeStyle;rounded=0;orthogonalLoop=1;jettySize=auto;html=1;exitX=0.75;exitY=0;exitDx=0;exitDy=0;entryX=0.574;entryY=1.017;entryDx=0;entryDy=0;entryPerimeter=0;endArrow=open;endFill=0;" edge="1" parent="1" source="6w2IjOp51D1sBPelpt-x-30" target="6w2IjOp51D1sBPelpt-x-28">
          <mxGeometry relative="1" as="geometry" />
        </mxCell>
        <mxCell id="6w2IjOp51D1sBPelpt-x-33" value="1" style="text;html=1;align=center;verticalAlign=middle;resizable=0;points=[];autosize=1;strokeColor=none;fillColor=none;" vertex="1" parent="1">
          <mxGeometry x="720" y="216" width="30" height="30" as="geometry" />
        </mxCell>
        <mxCell id="6w2IjOp51D1sBPelpt-x-34" value="0..*" style="text;html=1;align=center;verticalAlign=middle;resizable=0;points=[];autosize=1;strokeColor=none;fillColor=none;" vertex="1" parent="1">
          <mxGeometry x="760" y="302" width="40" height="30" as="geometry" />
        </mxCell>
        <mxCell id="6w2IjOp51D1sBPelpt-x-36" style="edgeStyle=orthogonalEdgeStyle;rounded=0;orthogonalLoop=1;jettySize=auto;html=1;entryX=0;entryY=0.25;entryDx=0;entryDy=0;endArrow=open;endFill=0;startArrow=diamond;startFill=1;startSize=10;" edge="1" parent="1" source="6w2IjOp51D1sBPelpt-x-2" target="6w2IjOp51D1sBPelpt-x-5">
          <mxGeometry relative="1" as="geometry" />
        </mxCell>
        <mxCell id="6w2IjOp51D1sBPelpt-x-37" style="edgeStyle=orthogonalEdgeStyle;rounded=0;orthogonalLoop=1;jettySize=auto;html=1;exitX=0.25;exitY=0;exitDx=0;exitDy=0;entryX=0.657;entryY=1.024;entryDx=0;entryDy=0;entryPerimeter=0;endArrow=block;endFill=0;endSize=11;" edge="1" parent="1" source="6w2IjOp51D1sBPelpt-x-30" target="6w2IjOp51D1sBPelpt-x-8">
          <mxGeometry relative="1" as="geometry" />
        </mxCell>
        <mxCell id="6w2IjOp51D1sBPelpt-x-41" value="&amp;nbsp; &amp;nbsp; public override double vender(double monto){&lt;br&gt;&amp;nbsp; &amp;nbsp; &amp;nbsp; &amp;nbsp; return this.cambiador.venderChino(monto);&lt;div&gt;*&amp;nbsp; &amp;nbsp; }&lt;/div&gt;" style="shape=note2;boundedLbl=1;whiteSpace=wrap;html=1;size=25;verticalAlign=top;align=left;" vertex="1" parent="1">
          <mxGeometry x="645" y="438" width="270" height="92" as="geometry" />
        </mxCell>
        <mxCell id="6w2IjOp51D1sBPelpt-x-42" value="- cambiador" style="text;html=1;align=center;verticalAlign=middle;resizable=0;points=[];autosize=1;strokeColor=none;fillColor=none;" vertex="1" parent="1">
          <mxGeometry x="750" y="216" width="90" height="30" as="geometry" />
        </mxCell>
        <mxCell id="6w2IjOp51D1sBPelpt-x-43" style="edgeStyle=orthogonalEdgeStyle;rounded=0;orthogonalLoop=1;jettySize=auto;html=1;exitX=0.5;exitY=0;exitDx=0;exitDy=0;exitPerimeter=0;endArrow=none;endFill=0;dashed=1;" edge="1" parent="1" source="6w2IjOp51D1sBPelpt-x-41">
          <mxGeometry relative="1" as="geometry">
            <mxPoint x="770" y="410" as="targetPoint" />
          </mxGeometry>
        </mxCell>
      </root>
    </mxGraphModel>
  </diagram>
</mxfile>
